<svg xmlns="http://www.w3.org/2000/svg" width="900" height="1200" viewBox="0 0 900 1200">
  
  <defs>
    <linearGradient id="bg" x1="0" y1="0" x2="0" y2="1">
      <stop offset="0" stop-color="#E3E7EF"/>
      <stop offset="1" stop-color="#CBD3E0"/>
    </linearGradient>
    <linearGradient id="shade" x1="0" y1="0" x2="0" y2="1">
      <stop offset="0" stop-color="#ffffff" stop-opacity="0.16"/>
      <stop offset="0.45" stop-color="#ffffff" stop-opacity="0"/>
      <stop offset="1" stop-color="#000000" stop-opacity="0.22"/>
    </linearGradient>
    <radialGradient id="vig" cx="0.5" cy="0.42" r="0.75">
      <stop offset="0.6" stop-color="#000000" stop-opacity="0"/>
      <stop offset="1" stop-color="#071A3D" stop-opacity="0.12"/>
    </radialGradient>
    <filter id="soft" x="-40%" y="-40%" width="180%" height="180%">
      <feGaussianBlur stdDeviation="14"/>
    </filter>
    <filter id="grain">
      <feTurbulence type="fractalNoise" baseFrequency="0.8" numOctaves="2" stitchTiles="stitch"/>
      <feColorMatrix type="saturate" values="0"/>
      <feComponentTransfer><feFuncA type="linear" slope="0.045"/></feComponentTransfer>
    </filter>
  </defs>
  <rect width="900" height="1200" fill="url(#bg)"/>
  <ellipse cx="450" cy="1078" rx="230" ry="26" fill="#071A3D" opacity="0.14" filter="url(#soft)"/>
  <path d="M 338 300 L 562 300 L 572 334 L 615 450 L 650 1050 L 460 1050 L 459 520 L 441 520 L 440 1050 L 250 1050 L 285 450 L 328 334 Z" fill="#0B2555"/>
  <path d="M 338 300 L 562 300 L 572 334 L 615 450 L 650 1050 L 460 1050 L 459 520 L 441 520 L 440 1050 L 250 1050 L 285 450 L 328 334 Z" fill="url(#shade)"/>
  <path d="M 338 300 L 562 300 L 572 334 L 615 450 L 650 1050 L 460 1050 L 459 520 L 441 520 L 440 1050 L 250 1050 L 285 450 L 328 334 Z" fill="none" stroke="#051334" stroke-width="2.5" opacity="0.8"/>
  
  <rect x="328" y="300" width="244" height="36" fill="#0B2555" stroke="#051334" stroke-width="2"/>
  <circle cx="450" cy="318" r="7" fill="#C7CDD9" stroke="#8A93A6" stroke-width="2"/><rect x="344" y="296" width="10" height="44" fill="#051334" opacity="0.85"/><rect x="394" y="296" width="10" height="44" fill="#051334" opacity="0.85"/><rect x="445" y="296" width="10" height="44" fill="#051334" opacity="0.85"/><rect x="501" y="296" width="10" height="44" fill="#051334" opacity="0.85"/><rect x="546" y="296" width="10" height="44" fill="#051334" opacity="0.85"/>
    <path d="M 457 340 L 457 448" stroke="#051334" stroke-width="3" fill="none"/>
    <path d="M 354 366 L 400 456" stroke="#051334" stroke-width="3" fill="none" opacity="0.9"/>
    <path d="M 546 366 L 500 456" stroke="#051334" stroke-width="3" fill="none" opacity="0.9"/>
      <g>
        <rect x="315.9473270440252" y="620" width="84" height="132" fill="#0B2555" stroke="#051334" stroke-width="3"/>
        <path d="M 315.9473270440252 656 L 399.9473270440252 656" stroke="#051334" stroke-width="3"/>
        <circle cx="357.9473270440252" cy="674" r="4.5" fill="#051334"/>
      </g>
      <g>
        <rect x="500.0526729559748" y="620" width="84" height="132" fill="#0B2555" stroke="#051334" stroke-width="3"/>
        <path d="M 500.0526729559748 656 L 584.0526729559748 656" stroke="#051334" stroke-width="3"/>
        <circle cx="542.0526729559748" cy="674" r="4.5" fill="#051334"/>
      </g>
  <path d="M 555 560 L 555 1030" stroke="rgba(255,255,255,0.12)" stroke-width="2.5" fill="none"/>
  <path d="M 345 560 L 345 1030" stroke="rgba(255,255,255,0.12)" stroke-width="2.5" fill="none"/>
  <path d="M 466 1026 L 644 1026" stroke="rgba(255,255,255,0.12)" stroke-width="2" stroke-dasharray="7 6" fill="none"/>
  <path d="M 256 1026 L 434 1026" stroke="rgba(255,255,255,0.12)" stroke-width="2" stroke-dasharray="7 6" fill="none"/>
  <rect width="900" height="1200" fill="url(#vig)"/>
  <rect width="900" height="1200" filter="url(#grain)" opacity="0.6"/>
  
  <text x="48" y="1126" font-family="'IBM Plex Mono','Courier New',monospace" font-size="17" font-weight="500" letter-spacing="6" fill="#071A3D" opacity="0.55">STREET PANTS</text>
  <text x="48" y="1152" font-family="'IBM Plex Mono','Courier New',monospace" font-size="12" letter-spacing="4" fill="#071A3D" opacity="0.34">06 / WIDE LEG CARGO — NAVY</text>
</svg>